# xmcd CD database file
#
# Track frame offsets:
#	150
#	22114
#	62022
#	86061
#	117725
#	131429
#	236215
#	293783
#	330882
#
# Disc length: 4699 seconds
#
# Revision: 0
# Processed by: cddbd v1.5.2PL0 Copyright (c) Steve Scherf et al.
# Submitted via: CDex 1.51
#
DISCID=81125909
DTITLE=Wayne Shorter Quartet - Without A Net
DYEAR=2013
DGENRE=Jazz
TTITLE0=Wayne Shorter Quartet - Orbits
TTITLE1=Wayne Shorter Quartet - Starry Night
TTITLE2=Wayne Shorter Quartet - S.S. Golden Mean
TTITLE3=Wayne Shorter Quartet - Plaza Real
TTITLE4=Wayne Shorter Quartet - Myrrh
TTITLE5=Wayne Shorter Quartet - Pegasus
TTITLE6=Wayne Shorter Quartet - Flying Down To Rio
TTITLE7=Wayne Shorter Quartet - Zero Gravity To The 10th Power
TTITLE8=Wayne Shorter Quartet - Notes Unidentified Flying Objects
EXTD=YEAR: 2013
EXTT0=
EXTT1=
EXTT2=
EXTT3=
EXTT4=
EXTT5=
EXTT6=
EXTT7=
EXTT8=
PLAYORDER=
